<svg id="Capa_1" xmlns="http://www.w3.org/2000/svg" viewBox="0 0 60 60"><g fill="#9777a8"><path d="M18.306 33.28l-5.013 5.013a.999.999 0 1 0 1.414 1.414l5.013-5.013a.999.999 0 1 0-1.414-1.414zM27.694 33.28a.999.999 0 1 0-1.414 1.414l6.025 6.025a.997.997 0 0 0 1.414 0 .999.999 0 0 0 0-1.414l-6.025-6.025zM50.707 30.293a.999.999 0 0 0-1.414 0l-10 10a.999.999 0 1 0 1.414 1.414l10-10a.999.999 0 0 0 0-1.414z"/></g><path d="M3 60a1 1 0 0 1-1-1V1a1 1 0 1 1 2 0v58a1 1 0 0 1-1 1z" fill="#556080"/><path d="M59 58H1a1 1 0 1 1 0-2h58a1 1 0 1 1 0 2z" fill="#556080"/><path d="M9 29H7a1 1 0 1 1 0-2h2a1 1 0 1 1 0 2zM9 25H7a1 1 0 1 1 0-2h2a1 1 0 1 1 0 2zM9 21H7a1 1 0 1 1 0-2h2a1 1 0 1 1 0 2zM9 17H7a1 1 0 1 1 0-2h2a1 1 0 1 1 0 2zM9 13H7a1 1 0 1 1 0-2h2a1 1 0 1 1 0 2zM9 9H7a1 1 0 1 1 0-2h2a1 1 0 1 1 0 2zM9 5H7a1 1 0 1 1 0-2h2a1 1 0 1 1 0 2z" fill="#bdc3c7"/><circle cx="11.012" cy="42.988" r="5" fill="#f29c1f"/><circle cx="23" cy="31" r="5" fill="#71c285"/><circle cx="54" cy="28" r="5" fill="#71c285"/><circle cx="36" cy="44" r="5" fill="#f29c1f"/></svg>