<svg xmlns="http://www.w3.org/2000/svg" viewBox="0 0 60 60"><path d="M18.306 33.28l-5.013 5.013a.999.999 0 101.414 1.414l5.013-5.013a.999.999 0 10-1.414-1.414zm9.388 0a.999.999 0 10-1.414 1.414l6.025 6.025a.997.997 0 001.414 0 .999.999 0 000-1.414l-6.025-6.025zm23.013-2.987a.999.999 0 00-1.414 0l-10 10a.999.999 0 101.414 1.414l10-10a.999.999 0 000-1.414z" fill="#9777a8"/><path d="M3 60a1 1 0 01-1-1V1a1 1 0 112 0v58a1 1 0 01-1 1z" fill="#556080"/><path d="M59 58H1a1 1 0 110-2h58a1 1 0 110 2z" fill="#556080"/><path d="M9 29H7a1 1 0 110-2h2a1 1 0 110 2zm0-4H7a1 1 0 110-2h2a1 1 0 110 2zm0-4H7a1 1 0 110-2h2a1 1 0 110 2zm0-4H7a1 1 0 110-2h2a1 1 0 110 2zm0-4H7a1 1 0 110-2h2a1 1 0 110 2zm0-4H7a1 1 0 110-2h2a1 1 0 110 2zm0-4H7a1 1 0 110-2h2a1 1 0 110 2z" fill="#bdc3c7"/><circle cx="11.012" cy="42.988" r="5" fill="#f29c1f"/><circle cx="23" cy="31" r="5" fill="#71c285"/><circle cx="54" cy="28" r="5" fill="#71c285"/><circle cx="36" cy="44" r="5" fill="#f29c1f"/></svg>