<svg xmlns="http://www.w3.org/2000/svg" width="512" height="512" viewBox="0 0 550.801 550.801"><path d="M475.095 132c-.031-2.529-.828-5.023-2.562-6.995L366.325 3.694c-.021-.031-.053-.042-.085-.074-.633-.709-1.36-1.292-2.141-1.803a10.298 10.298 0 00-.707-.422 11.447 11.447 0 00-2.13-.892c-.2-.061-.38-.14-.58-.195A10.89 10.89 0 00358.204 0H97.2C85.293 0 75.6 9.695 75.6 21.601v507.6c0 11.913 9.692 21.601 21.6 21.601h356.4c11.918 0 21.6-9.688 21.6-21.601V133.21c0-.406-.063-.812-.105-1.21zM180.149 512.721l-27.382-48.289-9.624 11.792v36.503h-25.054V400.882h25.054v49.438h.504c2.489-4.313 5.139-8.29 7.636-12.271l25.384-37.167H207.7l-37.007 47.624 38.995 64.215h-29.539zm136.057 0l-1.655-42.814c-.496-13.438-1.002-29.7-1.002-45.964h-.496c-3.485 14.275-8.126 30.206-12.44 43.311l-13.61 43.644h-19.746l-11.944-43.311c-3.649-13.11-7.462-29.047-10.125-43.644h-.335c-.665 15.104-1.16 32.353-1.985 46.296l-1.994 42.478h-23.398l7.137-111.839H258.3l10.95 37.336c3.483 12.94 6.966 26.884 9.455 39.982h.498c3.154-12.936 6.972-27.717 10.621-40.157l11.944-37.167h33.022l6.138 111.839h-24.722v.01zm113.985 0h-69.867V400.882h25.392v90.603h44.476v21.236zM97.2 366.758V21.605h250.204v110.519c0 5.961 4.83 10.8 10.8 10.8H453.6l.011 223.834H97.2z" fill="#91DC5A"/><path d="M272.025 64.505c72.452-.276 132.891 59.034 132.748 132.92-.143 72.101-59.542 133.046-133.855 132.481-72.839-.559-131.662-61.606-131.425-133.312.243-72.457 59.983-132.295 132.532-132.089zm-117.563 96.691c.433.309.865.606 1.295.912 1.313-.794 2.734-1.463 3.91-2.418 2.618-2.138 5.07-4.498 7.673-6.657 15.617-12.968 32.616-16.757 51.371-7.317 6.344 3.19 12.696 6.516 18.602 10.437 26.109 17.328 51.671 35.521 78.208 52.165 20.999 13.181 43.87 22.61 68.46 27.382 3.797.741 5.5-.253 6.223-3.644.991-4.617 1.566-9.337 2.816-13.877.833-2.987-.274-4.095-2.812-4.688a91.704 91.704 0 01-35.495-17.01c-19.068-14.881-37.6-30.478-56.083-46.105-12.788-10.826-24.94-22.409-37.687-33.302-17.305-14.769-37.589-17.497-59.173-13.176-5.329 1.062-11.588 2.252-15.325 5.664-12.852 11.752-23.042 25.716-29.133 42.282-1.123 3.051-1.912 6.236-2.85 9.352zm219.051 105.403c-.49-.529-.976-1.046-1.472-1.576-1.571.396-3.143.757-4.703 1.184-16.675 4.567-33.598 8.564-50.899 7.699-14.939-.751-29.922-2.787-44.624-5.579-25.423-4.831-48.977-15.414-72.792-25.196-7.538-3.093-15.704-5.762-23.738-6.308-10.747-.732-16.648 10.136-11.541 19.42 12.01 21.821 29.049 38.586 51.073 50.229 1.767.928 3.786 1.371 6.692 2.399-.583-2.896-.839-4.52-1.237-6.097-2.917-11.585 1.814-16.437 13.687-13.99 1.653.343 3.312.675 4.952 1.107 28.571 7.372 57.43 10.821 86.872 6.381 15.562-2.352 30.786-5.374 40.526-19.723 2.299-3.395 4.804-6.646 7.204-9.95zM236.931 79.748l.258 2.112c1.237.206 2.463.546 3.7.604 6.415.358 12.83.585 19.24.973 23.457 1.421 44.149 9.851 60.054 27.108 12.355 13.387 22.744 28.582 34.383 42.654 5.136 6.225 10.815 12.139 16.954 17.378 4.614 3.937 10.172 3.375 14.074.192 4.262-3.478 4.947-6.787 2.769-13.239-7.693-22.805-21.151-41.7-40.136-56.252-27.527-21.12-58.725-30.048-93.379-25.444-6.031.797-11.945 2.585-17.917 3.914z" fill="#91DC5A"/></svg>