<svg xmlns="http://www.w3.org/2000/svg" viewBox="0 0 512 512"><circle cx="256" cy="256" r="256" fill="#ffc61b"/><path d="M512 256c0-.91-.026-1.814-.034-2.722l-119.45-119.449-136.028 148.516-137.35 95.444 134.177 134.177c.896.009 1.788.034 2.688.034C397.384 512 512 397.384 512 256z" fill="#eaa22f"/><path d="M378.54 384H133.458c-10.869 0-19.682-8.811-19.682-19.682V147.68c0-10.869 8.811-19.68 19.682-19.68H378.54c10.869 0 19.682 8.811 19.682 19.68v216.638c0 10.871-8.811 19.682-19.682 19.682z" fill="#fff"/><path d="M378.54 128H256v256h122.54c10.869 0 19.682-8.811 19.682-19.682V147.682c0-10.871-8.811-19.682-19.682-19.682z" fill="#d0d1d3"/><path d="M398.222 147.682c0-10.869-8.811-19.682-19.682-19.682H133.458c-10.869 0-19.68 8.811-19.68 19.682v20.744h284.444v-20.744z" fill="#386895"/><path d="M398.222 147.682c0-10.869-8.811-19.682-19.682-19.682H256v40.426h142.222v-20.744z" fill="#273b7a"/><path d="M113.988 367.049c1.333 9.575 9.528 16.951 19.47 16.951H378.54c9.942 0 18.137-7.378 19.47-16.951H113.988z" fill="#808183"/><path d="M256 367.049V384h122.54c9.942 0 18.137-7.378 19.47-16.951H256z" fill="#59595b"/><path d="M373.226 158.599H138.774a7.328 7.328 0 010-14.654h234.451a7.328 7.328 0 017.327 7.327 7.326 7.326 0 01-7.326 7.327z" fill="#d0d1d3"/><path d="M373.226 143.946H256v14.653h117.226a7.327 7.327 0 100-14.653z" fill="#a6a8aa"/><path d="M148.256 222.546c-2.381 0-4.31 1.929-4.31 4.31s1.929 4.31 4.31 4.31H256v-8.62H148.256z" fill="#fee187"/><path d="M363.744 222.546H256v8.62h107.744c2.381 0 4.31-1.929 4.31-4.31s-1.929-4.31-4.31-4.31z" fill="#eaa22f"/><path d="M148.256 258.46c-2.381 0-4.31 1.929-4.31 4.31s1.929 4.31 4.31 4.31H256v-8.62H148.256z" fill="#fee187"/><path d="M363.744 258.46H256v8.62h107.744c2.381 0 4.31-1.929 4.31-4.31s-1.929-4.31-4.31-4.31z" fill="#eaa22f"/><path d="M148.256 294.376c-2.381 0-4.31 1.929-4.31 4.31s1.929 4.31 4.31 4.31H256v-8.62H148.256z" fill="#fee187"/><path d="M363.744 294.376H256v8.62h107.744c2.381 0 4.31-1.929 4.31-4.31s-1.929-4.31-4.31-4.31z" fill="#eaa22f"/><path d="M363.744 338.91H148.256c-2.381 0-4.31-1.929-4.31-4.31s1.929-4.31 4.31-4.31h215.488c2.381 0 4.31 1.929 4.31 4.31s-1.929 4.31-4.31 4.31z" fill="#fee187"/><path d="M363.744 330.29H256v8.62h107.744c2.381 0 4.31-1.929 4.31-4.31s-1.929-4.31-4.31-4.31z" fill="#eaa22f"/><path fill="#e09112" d="M238.037 218.419h89.781v17.958h-89.781z"/><path fill="#ff5419" d="M256 218.419h71.828v17.958H256z"/><path fill="#e09112" d="M166.219 254.328H256v17.958h-89.781z"/><path fill="#d35933" d="M238.037 254.328h89.781v17.958h-89.781z"/><path fill="#b54324" d="M256 254.328h71.828v17.958H256z"/><path d="M202.128 218.419h17.958v17.958h-17.958zm-35.909 107.744h71.83v17.958h-71.83z" fill="#ffc61b"/><path fill="#ff5419" d="M166.219 218.419h35.914v17.958h-35.914z"/><path fill="#ffc61b" d="M306.7 289.168h11.609v17.958H306.7z"/><path fill="#ff5419" d="M166.219 289.168H306.7v17.958H166.219z"/><path fill="#c92f00" d="M256 289.168h50.697v17.958H256z"/><path d="M282.936 354.856a4.31 4.31 0 01-4.31-4.31V210.91a4.31 4.31 0 014.31-4.31 4.31 4.31 0 014.31 4.31v139.636a4.31 4.31 0 01-4.31 4.31z" fill="#38c6d9"/><path d="M297.348 204.602l-11.966 7.977a4.41 4.41 0 01-4.894 0l-11.966-7.977a4.413 4.413 0 01-1.964-3.67v-15.063a4.412 4.412 0 014.411-4.411H294.9a4.412 4.412 0 014.411 4.411v15.063a4.407 4.407 0 01-1.963 3.67z" fill="#71e2ef"/></svg>