<?xml version="1.0" encoding="iso-8859-1"?>
<!-- Generator: Adobe Illustrator 19.0.0, SVG Export Plug-In . SVG Version: 6.00 Build 0)  -->
<svg version="1.1" id="Capa_1" xmlns="http://www.w3.org/2000/svg" xmlns:xlink="http://www.w3.org/1999/xlink" x="0px" y="0px"
	 viewBox="0 0 384 384" style="enable-background:new 0 0 384 384;" xml:space="preserve">
<circle style="fill:#EA8953;" cx="192" cy="192" r="192"/>
<path style="opacity:0.1;enable-background:new    ;" d="M289.88,140.438l-0.04-0.041c-0.92-0.8-2.12-1.28-3.44-1.28h-12.12
	l-34.16-34.16l-0.24-0.24l-0.004,0.012c-0.894-0.935-2.228-1.333-3.516-0.892l-9.72,3.24c-0.8-0.8-1.6-1.52-2.48-2.24l-21.64-21.64
	l-0.4-0.4c-0.6-0.52-1.36-0.8-2.2-0.8h-15.84c-1.64,0-3.04,1.16-3.4,2.76l-2.04,10.04c-8.12,2.24-15.4,6.519-21.28,12.28l-9.72-3.24
	c-1.56-0.521-3.24,0.12-4.08,1.56l-7.92,13.72c-0.8,1.4-0.52,3.199,0.72,4.32l7.64,6.76c-0.76,2.88-1.12,5.88-1.36,8.92H97.6
	c-2.88,0-5.24,2.32-5.24,5.199v138.721H82v14.4l84.873,84.873C175.102,383.387,183.477,384,192,384
	c92.787,0,170.201-65.818,188.101-153.313l-89.781-89.81L289.88,140.438z"/>
<path style="fill:#44C4A1;" d="M240.017,154.804c1.005-3.934,1.541-8.056,1.541-12.304c0-4.247-0.536-8.37-1.541-12.304l7.636-6.77
	c1.23-1.091,1.523-2.897,0.701-4.321l-7.916-13.71c-0.822-1.424-2.533-2.074-4.092-1.554l-9.703,3.235
	c-5.868-5.739-13.154-10.026-21.286-12.298l-2.049-10.011C202.978,83.157,201.56,82,199.916,82h-15.833
	c-1.644,0-3.062,1.157-3.391,2.768l-2.049,10.011c-8.131,2.271-15.417,6.558-21.286,12.298l-9.702-3.235
	c-1.56-0.52-3.271,0.129-4.093,1.554l-7.916,13.711c-0.822,1.424-0.529,3.23,0.701,4.321l7.636,6.77
	c-1.005,3.934-1.542,8.056-1.542,12.304c0,4.247,0.536,8.369,1.542,12.304l-7.636,6.77c-1.23,1.091-1.524,2.898-0.701,4.322
	l7.916,13.71c0.822,1.424,2.533,2.074,4.093,1.554l9.702-3.235c5.868,5.739,13.154,10.026,21.286,12.298l2.049,10.011
	c0.33,1.611,1.748,2.768,3.391,2.768h15.833c1.644,0,3.062-1.157,3.391-2.768l2.049-10.011c8.131-2.271,15.417-6.558,21.286-12.298
	l9.703,3.234c1.56,0.52,3.27-0.129,4.092-1.553l7.916-13.71c0.822-1.424,0.529-3.23-0.701-4.322L240.017,154.804z M192,177.568
	c-19.367,0-35.068-15.7-35.068-35.068s15.701-35.068,35.068-35.068c19.367,0,35.068,15.7,35.068,35.068S211.367,177.568,192,177.568
	z"/>
<g>
	<path style="fill:#3EA69B;" d="M192,179.81c-20.572,0-37.31-16.737-37.31-37.31s16.738-37.31,37.31-37.31
		c20.572,0,37.31,16.736,37.31,37.31S212.573,179.81,192,179.81z M192,109.346c-18.282,0-33.155,14.873-33.155,33.155
		s14.873,33.155,33.155,33.155c18.282,0,33.155-14.873,33.155-33.155S210.282,109.346,192,109.346z"/>
	<circle style="fill:#3EA69B;" cx="192" cy="142.5" r="17.748"/>
</g>
<path style="fill:#3A556A;" d="M291.62,144.306v138.76H92.38v-138.76c0-2.88,2.32-5.2,5.2-5.2h188.84
	C289.3,139.106,291.62,141.426,291.62,144.306z"/>
<rect x="82" y="283.04" style="fill:#EBF0F3;" width="220" height="14.372"/>
<g>
	<polygon style="fill:#D5D6DB;" points="301.679,297.442 82.321,297.442 97.311,302 286.689,302 	"/>
	<rect x="176.64" y="288.56" style="fill:#D5D6DB;" width="30.76" height="3.364"/>
</g>
<rect x="104.48" y="150.24" style="fill:#64798A;" width="175" height="121.72"/>
<g>
	<path style="fill:#FFFFFF;" d="M153.223,222.916l-4.344,9.871h-7.824l19.125-43.402h7.824l19.121,43.402h-7.82l-4.348-9.871
		H153.223z M171.977,216.146l-7.887-17.883l-7.887,17.883H171.977z"/>
	<path style="fill:#FFFFFF;" d="M222.453,193.174c3.024,2.524,4.535,6.414,4.535,11.672c0,5.258-1.543,9.106-4.625,11.551
		c-3.086,2.441-7.816,3.66-14.187,3.66h-7.699v12.73h-7.328v-43.402h14.902C214.633,189.385,219.434,190.65,222.453,193.174z
		 M217.27,211.088c1.469-1.554,2.203-3.828,2.203-6.832c0-3-0.93-5.121-2.793-6.363c-1.863-1.242-4.781-1.863-8.754-1.863h-7.449
		v17.387h8.504C213.039,213.416,215.801,212.638,217.27,211.088z"/>
	<path style="fill:#FFFFFF;" d="M235.617,189.385h7.328v43.402h-7.328V189.385z"/>
</g>
<g>
	<rect x="121.08" y="167.448" style="fill:#FCD462;" width="15.336" height="8.476"/>
	<rect x="145.72" y="167.448" style="fill:#FCD462;" width="115.58" height="8.476"/>
	<rect x="247.564" y="246.244" style="fill:#FCD462;" width="15.336" height="8.476"/>
	<rect x="121.1" y="246.244" style="fill:#FCD462;" width="115.58" height="8.476"/>
</g>
<g>
</g>
<g>
</g>
<g>
</g>
<g>
</g>
<g>
</g>
<g>
</g>
<g>
</g>
<g>
</g>
<g>
</g>
<g>
</g>
<g>
</g>
<g>
</g>
<g>
</g>
<g>
</g>
<g>
</g>
</svg>
