<svg xmlns="http://www.w3.org/2000/svg" viewBox="0 0 495.001 495.001"><path d="M335.739 129.023c48.224 27.164 78.426 77.982 78.426 134.549 0 1.668-.035 3.338-.088 5.006a84.837 84.837 0 0139.343 12.015c.491-5.655.745-11.343.745-17.021 0-39.647-11.856-77.798-34.287-110.326-19.039-27.61-44.538-49.604-74.329-64.263.001.131.005.261.005.392 0 13.824-3.435 27.473-9.815 39.648zm-151.428-.446c-6.238-12.073-9.587-25.552-9.587-39.202 0-.299.008-.595.011-.893-31.605 15.351-58.585 39.082-77.89 68.508 14.089 1.893 27.102 7.23 38.158 15.14a155.387 155.387 0 0149.308-43.553z" fill="#ffda44"/><path d="M336.357 397.77c-23.25 13.363-49.437 20.354-76.744 20.354-58.637 0-111.779-33.017-137.971-84.868l-26.849 33.757a194.434 194.434 0 00164.82 91.111c36.187 0 70.819-9.758 101.228-28.369l-18.242-22.935a84.938 84.938 0 01-6.242-9.05z" fill="#ffcd00"/><path d="M152.434 294.543c11.861-14.997 18.396-33.792 18.396-52.905 0-28.624-14.154-54.001-35.828-69.508-11.056-7.91-24.068-13.248-38.158-15.14a85.869 85.869 0 00-11.43-.767v53.573c17.553 0 31.842 14.281 31.842 31.842 0 17.553-14.289 31.842-31.842 31.842v105.324l9.379-11.792 26.849-33.757 30.792-38.712z" fill="#cd2a00"/><path d="M117.257 241.638c0-17.561-14.289-31.842-31.842-31.842v63.683c17.553.001 31.842-14.288 31.842-31.841z" fill="#d8d7da"/><path d="M85.415 273.48c-17.561 0-31.842-14.289-31.842-31.842 0-17.561 14.281-31.842 31.842-31.842v-53.573C38.313 156.223 0 194.537 0 241.638c0 19.113 6.535 37.907 18.428 52.945l66.987 84.221V273.48z" fill="#ff3501"/><path d="M53.573 241.638c0 17.553 14.281 31.842 31.842 31.842v-63.683c-17.561 0-31.842 14.281-31.842 31.841z" fill="#fff"/><path d="M291.98 89.375c0 17.553-14.289 31.842-31.842 31.842v105.324l67.018-84.261a84.831 84.831 0 008.581-13.257c6.38-12.175 9.815-25.824 9.815-39.648 0-.131-.004-.261-.005-.392-.212-46.922-38.447-85.023-85.41-85.023v53.573c17.555.001 31.843 14.282 31.843 31.842z" fill="#cd2a00"/><path d="M291.98 89.375c0-17.561-14.289-31.842-31.842-31.842v63.683c17.554.001 31.842-14.288 31.842-31.841z" fill="#d8d7da"/><path d="M184.311 128.577a85.095 85.095 0 008.841 13.742l66.987 84.221V121.217c-17.561 0-31.842-14.289-31.842-31.842 0-17.561 14.281-31.842 31.842-31.842V3.96c-46.803 0-84.922 37.831-85.404 84.522-.003.298-.011.594-.011.893 0 13.65 3.35 27.13 9.587 39.202z" fill="#ff3501"/><path d="M228.297 89.375c0 17.553 14.281 31.842 31.842 31.842V57.534c-17.561 0-31.842 14.281-31.842 31.841z" fill="#fff"/><path d="M453.42 280.593a84.837 84.837 0 00-39.343-12.015 86.815 86.815 0 00-4.49-.118v53.573c17.553 0 31.842 14.281 31.842 31.842 0 17.553-14.289 31.842-31.842 31.842v105.324l67.018-84.261c11.861-14.997 18.396-33.792 18.396-52.905 0-31.085-16.693-58.339-41.581-73.282z" fill="#cd2a00"/><path d="M441.428 353.876c0-17.561-14.289-31.842-31.842-31.842v63.683c17.553 0 31.842-14.289 31.842-31.841z" fill="#d8d7da"/><path d="M377.745 353.876c0-17.561 14.281-31.842 31.842-31.842v-53.573c-47.102 0-85.415 38.313-85.415 85.415 0 15.445 4.272 30.68 12.186 43.894a84.95 84.95 0 006.242 9.051l18.242 22.935 48.745 61.286V385.717c-17.561 0-31.842-14.289-31.842-31.841z" fill="#ff3501"/><path d="M377.745 353.876c0 17.553 14.281 31.842 31.842 31.842v-63.683c-17.561-.001-31.842 14.28-31.842 31.841z" fill="#fff"/></svg>