<svg version="1" id="Layer_1" xmlns="http://www.w3.org/2000/svg" viewBox="0 0 32 32"><path id="XMLID_6_" fill="#FFF" d="M29.5 11.3H26V3.8C26 2.1 24.6.7 22.9.7H3.1C1.4.8 0 2.1 0 3.8v13.7c0 1.7 1.4 3.1 3.1 3.1h.8V26l6.9-5.4h.9v5.1c0 1.4 1.1 2.5 2.5 2.5h9.7l5.3 4.2v-4.2h.3c1.4 0 2.5-1.1 2.5-2.5V13.8c0-1.4-1.1-2.5-2.5-2.5z"/><linearGradient id="XMLID_4_" gradientUnits="userSpaceOnUse" x1="21.8" y1="29.104" x2="21.8" y2="14.026"><stop offset="0" stop-color="#00c73f"/><stop offset="1" stop-color="#b3d721"/></linearGradient><path id="XMLID_2_" fill="url(#XMLID_4_)" d="M29.5 12.3H27v5.3c0 2.2-1.8 4-4 4H12.6v4.1c0 .8.7 1.5 1.5 1.5h10.1l4 3.1v-3.1h1.3c.8 0 1.5-.7 1.5-1.5V13.8c0-.8-.7-1.5-1.5-1.5z"/><linearGradient id="XMLID_5_" gradientUnits="userSpaceOnUse" x1="13" y1="22.45" x2="13" y2="3.91"><stop offset="0" stop-color="#0072bc"/><stop offset="1" stop-color="#55a0d7"/></linearGradient><path id="XMLID_1_" fill="url(#XMLID_5_)" d="M22.9 1.8H3.1c-1.2 0-2.1.9-2.1 2v13.7c0 1.1.9 2.1 2.1 2.1h1.8v4.3l5.5-4.3h12.5c1.1 0 2.1-.9 2.1-2.1V3.8c0-1.1-1-2-2.1-2z"/><g opacity=".2"><path d="M1.5 18V4.3c0-1.1.9-2 2.1-2h19.8c.5 0 .9.2 1.2.4-.4-.6-1-.9-1.7-.9H3.1c-1.2 0-2.1.9-2.1 2v13.7c0 .7.4 1.3.9 1.7-.2-.3-.4-.8-.4-1.2zM5.4 20.1h-.5v3.8l.5-.4zM13.1 26.2v-4.1h10.4c2.2 0 4-1.8 4-4v-5.3H30c.3 0 .5.1.8.2-.3-.4-.7-.7-1.3-.7H27v5.3c0 2.2-1.8 4-4 4H12.6v4.1c0 .5.3 1 .7 1.3-.1-.3-.2-.5-.2-.8z"/></g></svg>