<?xml version="1.0" encoding="UTF-8" standalone="no"?>
<svg
   xmlns:dc="http://purl.org/dc/elements/1.1/"
   xmlns:cc="http://creativecommons.org/ns#"
   xmlns:rdf="http://www.w3.org/1999/02/22-rdf-syntax-ns#"
   xmlns:svg="http://www.w3.org/2000/svg"
   xmlns="http://www.w3.org/2000/svg"
   xmlns:xlink="http://www.w3.org/1999/xlink"
   height="32"
   width="32"
   xml:space="preserve"
   y="0px"
   x="0px"
   id="Layer_1"
   version="1.1"><metadata
     id="metadata3415"><rdf:RDF><cc:Work
         rdf:about=""><dc:format>image/svg+xml</dc:format><dc:type
           rdf:resource="http://purl.org/dc/dcmitype/StillImage" /><dc:title></dc:title></cc:Work></rdf:RDF></metadata><defs
     id="defs3413"><linearGradient
       id="linearGradient3438"><stop
         id="stop3440"
         offset="0"
         style="stop-color:#929da5;stop-opacity:1;" /><stop
         id="stop3442"
         offset="1"
         style="stop-color:#929da5;stop-opacity:0;" /></linearGradient><linearGradient
       gradientTransform="translate(0,-68)"
       gradientUnits="userSpaceOnUse"
       y2="54.877182"
       x2="57.50267"
       y1="44.464222"
       x1="47.783909"
       id="linearGradient3444"
       xlink:href="#linearGradient3438" /></defs><g
     transform="translate(-32.075472,41.679244)"
     id="g3446"><g
       id="g3339"
       transform="matrix(0.10774411,0,0,0.10774411,32.075472,-41.679245)"><g
         id="g3341"><g
           id="g3343"><circle
             id="circle3345"
             r="148.5"
             cy="148.5"
             cx="148.5"
             style="fill:#e3e5e4" /></g></g></g><path
       id="path3347"
       d="m 55.537937,-28.714288 -18.129132,8.368377 10.666667,10.666667 c 7.171664,0 13.241105,-4.718546 15.27359,-11.220364 l -7.811125,-7.81468 z"
       style="fill:url(#linearGradient3444);fill-opacity:1" /><g
       id="g3349"
       transform="matrix(0.10774411,0,0,0.10774411,32.075472,-41.679245)"><path
         id="path3351"
         d="m 249.688,198 -72.395,0 0,-82.5 28.48,0 c 6.549,0 12.536,3.7 15.465,9.558 l 11.721,23.442 15.036,11.434 c 5.105,3.149 8.213,8.718 8.213,14.716 l 0,16.83 c 0,3.601 -2.919,6.52 -6.52,6.52 z"
         style="fill:#c63c22" /></g><g
       id="g3353"
       transform="matrix(0.10774411,0,0,0.10774411,32.075472,-41.679245)"><path
         id="path3355"
         d="m 181.5,198 -132,0 0,-102.834 C 49.5,88.17 55.171,82.5 62.167,82.5 l 106.667,0 c 6.996,0 12.667,5.671 12.667,12.666 l 0,102.834 -0.001,0 z"
         style="fill:#f86e51" /></g><g
       id="g3357"
       transform="matrix(0.10774411,0,0,0.10774411,32.075472,-41.679245)"><path
         id="path3359"
         d="M 181.5,95.167 C 181.5,88.171 175.829,82.5 168.833,82.5 l -21.167,0 0,115.5 33.834,0 0,-102.833 z"
         style="fill:#dd523c" /></g><g
       id="g3361"
       transform="matrix(0.10774411,0,0,0.10774411,32.075472,-41.679245)"><path
         id="path3363"
         d="M 212.597,126.195 224,149 l -33,0 0,-27 14.81,0 c 2.874,0 5.502,1.624 6.787,4.195 z"
         style="fill:#d0d5d9" /></g><g
       id="g3365"
       transform="matrix(0.10774411,0,0,0.10774411,32.075472,-41.679245)"><circle
         id="circle3367"
         r="23.291"
         cy="198"
         cx="89.291"
         style="fill:#32373b" /></g><g
       id="g3369"
       transform="matrix(0.10774411,0,0,0.10774411,32.075472,-41.679245)"><circle
         id="circle3371"
         r="9"
         cy="198"
         cx="89.291"
         style="fill:#484f54" /></g><g
       id="g3373"
       transform="matrix(0.10774411,0,0,0.10774411,32.075472,-41.679245)"><circle
         id="circle3375"
         r="23.291"
         cy="198"
         cx="221.291"
         style="fill:#32373b" /></g><g
       id="g3377"
       transform="matrix(0.10774411,0,0,0.10774411,32.075472,-41.679245)"><circle
         id="circle3379"
         r="9"
         cy="198"
         cx="221.29201"
         style="fill:#484f54" /></g></g><g
     transform="matrix(0.10774411,0,0,0.10774411,0,197)"
     id="g3381" /><g
     transform="matrix(0.10774411,0,0,0.10774411,0,197)"
     id="g3383" /><g
     transform="matrix(0.10774411,0,0,0.10774411,0,197)"
     id="g3385" /><g
     transform="matrix(0.10774411,0,0,0.10774411,0,197)"
     id="g3387" /><g
     transform="matrix(0.10774411,0,0,0.10774411,0,197)"
     id="g3389" /><g
     transform="matrix(0.10774411,0,0,0.10774411,0,197)"
     id="g3391" /><g
     transform="matrix(0.10774411,0,0,0.10774411,0,197)"
     id="g3393" /><g
     transform="matrix(0.10774411,0,0,0.10774411,0,197)"
     id="g3395" /><g
     transform="matrix(0.10774411,0,0,0.10774411,0,197)"
     id="g3397" /><g
     transform="matrix(0.10774411,0,0,0.10774411,0,197)"
     id="g3399" /><g
     transform="matrix(0.10774411,0,0,0.10774411,0,197)"
     id="g3401" /><g
     transform="matrix(0.10774411,0,0,0.10774411,0,197)"
     id="g3403" /><g
     transform="matrix(0.10774411,0,0,0.10774411,0,197)"
     id="g3405" /><g
     transform="matrix(0.10774411,0,0,0.10774411,0,197)"
     id="g3407" /><g
     transform="matrix(0.10774411,0,0,0.10774411,0,197)"
     id="g3409" /></svg>