<?xml version="1.0" encoding="iso-8859-1"?>
<!-- Generator: Adobe Illustrator 19.0.0, SVG Export Plug-In . SVG Version: 6.00 Build 0)  -->
<svg version="1.1" id="Layer_1" xmlns="http://www.w3.org/2000/svg" xmlns:xlink="http://www.w3.org/1999/xlink" x="0px" y="0px"
	 viewBox="0 0 495.001 495.001" style="enable-background:new 0 0 495.001 495.001;" xml:space="preserve">
<g>
	<path style="fill:#FFDA44;" d="M335.739,129.023c48.224,27.164,78.426,77.982,78.426,134.549c0,1.668-0.035,3.338-0.088,5.006
		c14.325,0.746,27.726,5.04,39.343,12.015c0.491-5.655,0.745-11.343,0.745-17.021c0-39.647-11.856-77.798-34.287-110.326
		c-19.039-27.61-44.538-49.604-74.329-64.263c0.001,0.131,0.005,0.261,0.005,0.392C345.554,103.199,342.119,116.848,335.739,129.023
		z"/>
	<path style="fill:#FFDA44;" d="M184.311,128.577c-6.238-12.073-9.587-25.552-9.587-39.202c0-0.299,0.008-0.595,0.011-0.893
		c-31.605,15.351-58.585,39.082-77.89,68.508c14.089,1.893,27.102,7.23,38.158,15.14
		C148.141,154.258,164.986,139.384,184.311,128.577z"/>
	<path style="fill:#FFCD00;" d="M336.357,397.77c-23.25,13.363-49.437,20.354-76.744,20.354
		c-58.637,0-111.779-33.017-137.971-84.868l-26.849,33.757c35.221,56.154,97.118,91.111,164.82,91.111
		c36.187,0,70.819-9.758,101.228-28.369l-18.242-22.935C340.317,403.934,338.236,400.908,336.357,397.77z"/>
	<path style="fill:#CD2A00;" d="M152.434,294.543c11.861-14.997,18.396-33.792,18.396-52.905c0-28.624-14.154-54.001-35.828-69.508
		c-11.056-7.91-24.068-13.248-38.158-15.14c-3.74-0.502-7.554-0.767-11.43-0.767v53.573c17.553,0,31.842,14.281,31.842,31.842
		c0,17.553-14.289,31.842-31.842,31.842v105.324l9.379-11.792l26.849-33.757L152.434,294.543z"/>
	<path style="fill:#D8D7DA;" d="M117.257,241.638c0-17.561-14.289-31.842-31.842-31.842v63.683
		C102.968,273.48,117.257,259.191,117.257,241.638z"/>
	<path style="fill:#FF3501;" d="M85.415,273.48c-17.561,0-31.842-14.289-31.842-31.842c0-17.561,14.281-31.842,31.842-31.842
		v-53.573C38.313,156.223,0,194.537,0,241.638c0,19.113,6.535,37.907,18.428,52.945l66.987,84.221V273.48z"/>
	<path style="fill:#FFFFFF;" d="M53.573,241.638c0,17.553,14.281,31.842,31.842,31.842v-63.683
		C67.854,209.797,53.573,224.078,53.573,241.638z"/>
	<path style="fill:#CD2A00;" d="M291.98,89.375c0,17.553-14.289,31.842-31.842,31.842v105.324l67.018-84.261
		c3.282-4.15,6.14-8.599,8.581-13.257c6.38-12.175,9.815-25.824,9.815-39.648c0-0.131-0.004-0.261-0.005-0.392
		c-0.212-46.922-38.447-85.023-85.41-85.023v53.573C277.692,57.534,291.98,71.815,291.98,89.375z"/>
	<path style="fill:#D8D7DA;" d="M291.98,89.375c0-17.561-14.289-31.842-31.842-31.842v63.683
		C277.692,121.217,291.98,106.928,291.98,89.375z"/>
	<path style="fill:#FF3501;" d="M184.311,128.577c2.496,4.832,5.442,9.444,8.841,13.742l66.987,84.221V121.217
		c-17.561,0-31.842-14.289-31.842-31.842c0-17.561,14.281-31.842,31.842-31.842V3.96c-46.803,0-84.922,37.831-85.404,84.522
		c-0.003,0.298-0.011,0.594-0.011,0.893C174.724,103.025,178.074,116.505,184.311,128.577z"/>
	<path style="fill:#FFFFFF;" d="M228.297,89.375c0,17.553,14.281,31.842,31.842,31.842V57.534
		C242.578,57.534,228.297,71.815,228.297,89.375z"/>
	<path style="fill:#CD2A00;" d="M453.42,280.593c-11.617-6.975-25.018-11.269-39.343-12.015c-1.487-0.077-2.984-0.118-4.49-0.118
		v53.573c17.553,0,31.842,14.281,31.842,31.842c0,17.553-14.289,31.842-31.842,31.842v105.324l67.018-84.261
		c11.861-14.997,18.396-33.792,18.396-52.905C495.001,322.79,478.308,295.536,453.42,280.593z"/>
	<path style="fill:#D8D7DA;" d="M441.428,353.876c0-17.561-14.289-31.842-31.842-31.842v63.683
		C427.139,385.717,441.428,371.428,441.428,353.876z"/>
	<path style="fill:#FF3501;" d="M377.745,353.876c0-17.561,14.281-31.842,31.842-31.842v-53.573
		c-47.102,0-85.415,38.313-85.415,85.415c0,15.445,4.272,30.68,12.186,43.894c1.879,3.138,3.96,6.165,6.242,9.051l18.242,22.935
		l48.745,61.286V385.717C392.026,385.717,377.745,371.428,377.745,353.876z"/>
	<path style="fill:#FFFFFF;" d="M377.745,353.876c0,17.553,14.281,31.842,31.842,31.842v-63.683
		C392.026,322.034,377.745,336.315,377.745,353.876z"/>
</g>
<g>
</g>
<g>
</g>
<g>
</g>
<g>
</g>
<g>
</g>
<g>
</g>
<g>
</g>
<g>
</g>
<g>
</g>
<g>
</g>
<g>
</g>
<g>
</g>
<g>
</g>
<g>
</g>
<g>
</g>
</svg>
