<svg xmlns="http://www.w3.org/2000/svg" viewBox="0 0 511.998 511.998"><path d="M255.998 511.998c141.001 0 256-115.001 256-256S396.999 0 255.998 0C114.999 0 0 114.999 0 255.998s114.999 256 255.998 256z" fill="#1a91a1"/><path d="M470.26 51.26L114.955 173.522l108.228 21.587L470.258 51.26h.002z" fill="#ffba1b"/><path d="M114.955 173.522l108.228 21.587 71.829-41.819-180.057 20.232z" fill="#20d0c2"/><path d="M223.183 195.109l16.765 127.578L470.258 51.26 223.183 195.109z" fill="#f5a209"/><path d="M223.183 195.109l16.765 127.578 102.937-121.314-17.769-28.952-35.202 29.386 5.1-48.519h-.002l-71.829 41.819v.002z" fill="#15bdb1"/><path d="M470.26 51.26L262.05 225.069l-22.099 97.619L470.26 51.26z" fill="#fecd0d"/><path d="M289.915 201.808l-27.865 23.261-22.099 97.619 102.937-121.314-17.769-28.952-35.202 29.386v-.002l-.002.002z" fill="#20d0c2"/><path d="M399.433 293.524L470.26 51.26 262.05 225.069l137.385 68.455h-.002z" fill="#ffba1b"/><path d="M289.758 201.808l-27.865 23.261 137.385 68.453-74.314-121.1-35.207 29.388v-.002z" fill="#20d0c2"/><path d="M46.103 358.621L189.972 218.46l6.365 8.365L46.103 358.621zm168.733 98.1l130.323-149.789 9.172 4.178-139.495 145.611zm-108.713-14.7l121.75-109.042-6.65-5.697-115.1 114.739z" fill="#fff"/></svg>