<svg xmlns="http://www.w3.org/2000/svg" viewBox="0 0 508 508"><circle cx="254" cy="254" r="254" fill="#ffd05b"/><path d="M386 356.4c-15.6 0-31.2-7.6-34.4-30-1.6-9.6.8-19.2 3.2-28.4 1.6-6.4 3.2-12.8 3.6-19.2.4-10.4-3.2-20-9.6-26.8-7.2-7.6-18.8-11.2-29.2-9.6l-1.2-6.4c12.4-2 26 2.4 34.8 11.2 7.6 8 12 19.6 11.6 31.6-.4 6.8-2 14-3.6 20.4-2.4 8.8-4.4 17.2-3.2 25.6 4 26 27.2 25.2 34 24 18.8-2.8 38.8-17.6 36.8-34-2-17.6-12.4-40.8-24.8-55.6-1.2-1.6-2.8-3.2-4.4-4.8-2-2.4-4.4-4.8-6.4-7.6-5.6-7.6-9.6-16-11.6-25.2l6.4-1.2c1.6 8 5.6 16 10.4 22.8l6 7.2c1.6 1.6 2.8 3.2 4.4 4.8 13.2 16 24 39.6 26 58.8 2.4 20.4-20.4 38-42.4 40.8-2 1.6-4.4 1.6-6.4 1.6z" fill="#2b3b4e"/><path d="M319.6 136.4l-1.2 2.4c-.4.8 0 1.2.8 1.6l18.4 6c2 .8 4 1.6 5.6 3.2l11.6 10.4 4.4-4.8-13.6-10.4c-1.2-1.2-2.8-2-4.4-2.4l-20-6.8c-.8 0-1.6.4-1.6.8z" fill="#fff"/><path d="M328 138.4l-1.2 4.8 1.2.4 1.6-4.8zm4.8 1.2l-1.6 4.8 1.2.4 1.6-4.8zm2.8 1.2l-1.2 4.8 1.2.4 1.6-4.8z" fill="#e6e9ee"/><path d="M367.6 160l-8.4-5.2H358l-6 4.4c-.4.4-.4.8 0 1.2l4.8 4.4 10.8-4.8z" fill="#f1543f"/><path d="M364.4 212.8l3.2-21.2c0-.8-.4-1.6-.8-2h-.4l-7.6-5.2s-.4 0-.4-.4c-1.6-.8-3.2 0-4 1.2-.8 1.6 0 3.2 1.2 4l6.8 3.2-1.2 20c0 .8.4 1.2 1.2 1.6 1.2 0 2-.4 2-1.2z" fill="#fff"/><path d="M380.4 213.2l-19.2 3.2c-2.8.4-5.6-1.6-6-4.4l-2.8-30 12 2.4-4 3.2c-2.4 1.6-3.2 4.4-2.8 7.2l2.8 14c.4 1.2 1.2 1.6 2.4 1.6l17.6-4.8v7.6z" fill="#324a5e"/><g fill="#ff7058"><path d="M372 160.4l10 16.8c.4.8.4 2 0 2.8l-3.6 5.2-6 1.6-20-2.4c-1.2 0-2-.8-2-2l-1.2-7.6v-1.2l3.6-8.8c.4-.8.8-1.2 1.6-1.2l14.4-3.6c1.6-.8 2.8-.4 3.2.4z"/><path d="M379.2 182.4l7.6 35.6-6 2-8.8-34.4z"/></g><path d="M380 226.4l-1.2-4.8c-.4-.8.4-2 1.2-2.4l6.8-2c.8-.4 2 .4 2.4 1.2l1.2 4.8c.4.8-.4 2-1.2 2.4l-6.8 2c-1.2.4-2.4-.4-2.4-1.2z" fill="#fff"/><path d="M50.8 406.4C97.2 468 170.8 508 254 508s156.8-40 203.2-101.6H50.8z" fill="#f9b54c"/><path d="M338 376H169.6V115.6c0-7.6 6.4-14 14-14h140.8c7.6 0 14 6.4 14 14V376h-.4z" fill="#324a5e"/><path fill="#e6e9ee" d="M185.2 117.2H322v103.2H185.2z"/><path d="M336.4 370.4H171.2c-10 0-18 8-18 18s8 18 18 18h165.6c10 0 18-8 18-18-.4-9.6-8.4-18-18.4-18z" fill="#2b3b4e"/><path fill="#ced5e0" d="M322.4 117.2L185.2 220.8h137.2z"/></svg>