<svg xmlns="http://www.w3.org/2000/svg" xmlns:xlink="http://www.w3.org/1999/xlink" height="32" width="32" id="Layer_1"><defs id="defs3413"><linearGradient id="linearGradient3438"><stop id="stop3440" offset="0" stop-color="#929da5"/><stop id="stop3442" offset="1" stop-color="#929da5" stop-opacity="0"/></linearGradient><linearGradient gradientTransform="translate(0 -68)" gradientUnits="userSpaceOnUse" y2="54.877" x2="57.503" y1="44.464" x1="47.784" id="linearGradient3444" xlink:href="#linearGradient3438"/></defs><g transform="translate(-32.075 41.68)" id="g3446"><g id="g3339" transform="matrix(.10774 0 0 .10774 32.075 -41.68)"><g id="g3341"><g id="g3343"><circle id="circle3345" r="148.5" cy="148.5" cx="148.5" fill="#e3e5e4"/></g></g></g><path id="path3347" d="M55.538-28.714l-18.13 8.368L48.076-9.679c7.172 0 13.242-4.719 15.274-11.22l-7.811-7.815z" fill="url(#linearGradient3444)"/><g id="g3349" transform="matrix(.10774 0 0 .10774 32.075 -41.68)"><path id="path3351" d="M249.688 198h-72.395v-82.5h28.48a17.29 17.29 0 0 1 15.465 9.558l11.721 23.442 15.036 11.434a17.29 17.29 0 0 1 8.213 14.716v16.83a6.52 6.52 0 0 1-6.52 6.52z" fill="#c63c22"/></g><g id="g3353" transform="matrix(.10774 0 0 .10774 32.075 -41.68)"><path id="path3355" d="M181.5 198h-132V95.166c0-6.996 5.671-12.666 12.667-12.666h106.667c6.996 0 12.667 5.671 12.667 12.666V198h-.001z" fill="#f86e51"/></g><g id="g3357" transform="matrix(.10774 0 0 .10774 32.075 -41.68)"><path id="path3359" d="M181.5 95.167c0-6.996-5.671-12.667-12.667-12.667h-21.167V198H181.5V95.167z" fill="#dd523c"/></g><g id="g3361" transform="matrix(.10774 0 0 .10774 32.075 -41.68)"><path id="path3363" d="M212.597 126.195L224 149h-33v-27h14.81a7.588 7.588 0 0 1 6.787 4.195z" fill="#d0d5d9"/></g><g id="g3365" transform="matrix(.10774 0 0 .10774 32.075 -41.68)"><circle id="circle3367" r="23.291" cy="198" cx="89.291" fill="#32373b"/></g><g id="g3369" transform="matrix(.10774 0 0 .10774 32.075 -41.68)"><circle id="circle3371" r="9" cy="198" cx="89.291" fill="#484f54"/></g><g id="g3373" transform="matrix(.10774 0 0 .10774 32.075 -41.68)"><circle id="circle3375" r="23.291" cy="198" cx="221.291" fill="#32373b"/></g><g id="g3377" transform="matrix(.10774 0 0 .10774 32.075 -41.68)"><circle id="circle3379" r="9" cy="198" cx="221.292" fill="#484f54"/></g></g></svg>