<svg baseProfile="tiny" id="Layer_1" xmlns="http://www.w3.org/2000/svg" viewBox="0 0 32 32"><path fill="#FFF" d="M4.1 20C2.9 20 2 19.1 2 17.9V4.1C2 2.9 2.9 2 4.1 2H18c1.1 0 2 .9 2 2.1V18c0 1.1-.9 2.1-2.1 2.1H4.1z"/><linearGradient id="SVGID_1_" gradientUnits="userSpaceOnUse" x1="11" y1="19" x2="11" y2="3"><stop offset="0" stop-color="#c71a3a"/><stop offset="1" stop-color="#ed1f45"/></linearGradient><path fill="url(#SVGID_1_)" d="M17.9 19H4.1c-.6 0-1.1-.5-1.1-1.1V4.1C3 3.5 3.5 3 4.1 3H18c.5 0 1 .5 1 1.1V18c0 .5-.5 1-1.1 1z"/><path fill="#FFF" d="M15.1 30c-1.1 0-2.1-.9-2.1-2.1V13.6c0-1.1.9-2.1 2.1-2.1.4 0 .7.1 1 .3L28.8 19c.7.4 1.1 1 1.1 1.8s-.4 1.4-1.1 1.8L16 29.8c-.2.1-.6.2-.9.2z"/><linearGradient id="SVGID_2_" gradientUnits="userSpaceOnUse" x1="21.447" y1="12.507" x2="21.447" y2="29"><stop offset="0" stop-color="#3eb54a"/><stop offset="1" stop-color="#9aca3c"/></linearGradient><path fill="url(#SVGID_2_)" d="M15.6 12.6c-.7-.4-1.6.1-1.6.9v14.4c0 .8.9 1.3 1.6.9l12.8-7.2c.7-.4.7-1.4 0-1.9l-12.8-7.1z"/></svg>